<?xml version="1.0" encoding="UTF-8" standalone="no"?>
<svg
   width="120px"
   height="120px"
   viewBox="0 0 100 100"
   preserveAspectRatio="xMidYMid"
   class="uil-hourglass"
   version="1.1"
   id="svg18"
   sodipodi:docname="hourglass.svg"
   inkscape:version="1.2.1 (9c6d41e410, 2022-07-14)"
   xmlns:inkscape="http://www.inkscape.org/namespaces/inkscape"
   xmlns:sodipodi="http://sodipodi.sourceforge.net/DTD/sodipodi-0.dtd"
   xmlns="http://www.w3.org/2000/svg"
   xmlns:svg="http://www.w3.org/2000/svg">
  <defs
     id="defs22" />
  <sodipodi:namedview
     id="namedview20"
     pagecolor="#ffffff"
     bordercolor="#000000"
     borderopacity="0.25"
     inkscape:showpageshadow="2"
     inkscape:pageopacity="0.0"
     inkscape:pagecheckerboard="0"
     inkscape:deskcolor="#d1d1d1"
     showgrid="false"
     inkscape:zoom="6.975"
     inkscape:cx="-17.491039"
     inkscape:cy="60.071685"
     inkscape:window-width="1920"
     inkscape:window-height="1017"
     inkscape:window-x="-8"
     inkscape:window-y="-8"
     inkscape:window-maximized="1"
     inkscape:current-layer="svg18" />
  <rect
     x="0"
     y="0"
     width="100"
     height="100"
     fill="none"
     class="bk"
     id="rect2" />
  <g
     id="g16"
     transform="translate(-15.412186,-0.83632019)">
    <path
       fill="none"
       stroke="#1b646e"
       stroke-width="5"
       stroke-miterlimit="10"
       d="M 58.4,51.7 C 57.5,50.8 57,49.7 57,49.4 57,49.1 57.5,49 58.4,48 70.8,43.8 79.8,30.5 80,15.5 H 70 30 20 c 0.2,15 9.2,28.1 21.6,32.3 0.9,0.9 1.4,1.2 1.4,1.5 0,0.3 -0.5,1.6 -1.4,2.5 C 29.2,56.1 20.2,69.5 20,85.5 H 30 70 80 C 79.8,69.5 70.8,55.9 58.4,51.7 Z"
       class="glass"
       id="path4"
       style="stroke:#003399" />
    <clipPath
       id="uil-hourglass-clip1">
      <rect
         x="15"
         y="20"
         width="70"
         height="25"
         class="clip"
         id="rect6">
        <animate
           attributeName="height"
           from="25"
           to="0"
           dur="1s"
           repeatCount="indefinite"
           vlaues="25;0;0"
           keyTimes="0;0.5;1" />
        <animate
           attributeName="y"
           from="20"
           to="45"
           dur="1s"
           repeatCount="indefinite"
           vlaues="20;45;45"
           keyTimes="0;0.5;1" />
      </rect>
    </clipPath>
    <clipPath
       id="uil-hourglass-clip2">
      <rect
         x="15"
         y="55"
         width="70"
         height="25"
         class="clip"
         id="rect9">
        <animate
           attributeName="height"
           from="0"
           to="25"
           dur="1s"
           repeatCount="indefinite"
           vlaues="0;25;25"
           keyTimes="0;0.5;1" />
        <animate
           attributeName="y"
           from="80"
           to="55"
           dur="1s"
           repeatCount="indefinite"
           vlaues="80;55;55"
           keyTimes="0;0.5;1" />
      </rect>
    </clipPath>
    <path
       d="m 29,23 c 3.1,11.4 11.3,19.5 21,19.5 9.7,0 17.9,-8.1 21,-19.5 z"
       clip-path="url(#uil-hourglass-clip1)"
       fill="#00c2ff"
       class="sand"
       id="path12"
       style="fill:#008dff" />
    <path
       d="M 71.6,78 C 68.6,66.4 60.1,58 50.1,58 40.1,58 31.6,66.4 28.6,78 Z"
       clip-path="url(#uil-hourglass-clip2)"
       fill="#00c2ff"
       class="sand"
       id="path14"
       style="fill:#008dff" />
    <animateTransform
       attributeName="transform"
       type="rotate"
       from="0 50 50"
       to="180 50 50"
       repeatCount="indefinite"
       dur="1s"
       values="0 50 50;0 50 50;180 50 50"
       keyTimes="0;0.7;1" />
  </g>
</svg>
